<svg xmlns="http://www.w3.org/2000/svg" width="56.64" height="56.64" viewBox="0 0 56.64 56.64">
  <g id="profile_placeholder" data-name="profile placeholder" transform="translate(-347.785 -135.683)">
    <g id="Path_286749" data-name="Path 286749" transform="translate(350.785 138.683)" fill="#ccc">
      <path d="M 25.31978988647461 52.13957977294922 C 21.69980049133301 52.13957977294922 18.18729972839355 51.43025970458984 14.87985992431641 50.03133010864258 C 11.68599987030029 48.68043899536133 8.817930221557617 46.74684143066406 6.355340003967285 44.28424072265625 C 3.892739772796631 41.82165145874023 1.959139943122864 38.95357894897461 0.6082499027252197 35.75971984863281 C -0.7906801104545593 32.45227813720703 -1.50000011920929 28.93977928161621 -1.50000011920929 25.31978988647461 C -1.50000011920929 21.69980049133301 -0.7906801104545593 18.18729972839355 0.6082499027252197 14.87985992431641 C 1.959139943122864 11.68599987030029 3.892739772796631 8.817930221557617 6.355340003967285 6.355340003967285 C 8.817930221557617 3.892739772796631 11.68599987030029 1.959139943122864 14.87985992431641 0.6082499027252197 C 18.18729972839355 -0.7906801104545593 21.69980049133301 -1.50000011920929 25.31978988647461 -1.50000011920929 C 28.93977928161621 -1.50000011920929 32.45227813720703 -0.7906801104545593 35.75971984863281 0.6082499027252197 C 38.95357894897461 1.959139943122864 41.82165145874023 3.892739772796631 44.28424072265625 6.355340003967285 C 46.74684143066406 8.817930221557617 48.68043899536133 11.68599987030029 50.03133010864258 14.87985992431641 C 51.43025970458984 18.18729972839355 52.13957977294922 21.69980049133301 52.13957977294922 25.31978988647461 C 52.13957977294922 28.93977928161621 51.43025970458984 32.45227813720703 50.03133010864258 35.75971984863281 C 48.68043899536133 38.95357894897461 46.74684143066406 41.82165145874023 44.28424072265625 44.28424072265625 C 41.82165145874023 46.74684143066406 38.95357894897461 48.68043899536133 35.75971984863281 50.03133010864258 C 32.45227813720703 51.43025970458984 28.93977928161621 52.13957977294922 25.31978988647461 52.13957977294922 Z" stroke="none"/>
      <path d="M 25.31978988647461 0 C 11.3360595703125 0 0 11.3360595703125 0 25.31978988647461 C 0 39.30352020263672 11.3360595703125 50.63957977294922 25.31978988647461 50.63957977294922 C 39.30352020263672 50.63957977294922 50.63957977294922 39.30352020263672 50.63957977294922 25.31978988647461 C 50.63957977294922 11.3360595703125 39.30352020263672 0 25.31978988647461 0 M 25.31978988647461 -3 C 29.14162063598633 -3 32.8507080078125 -2.250820159912109 36.34404754638672 -0.7732582092285156 C 39.71670913696289 0.65325927734375 42.74502944946289 2.694801330566406 45.34489822387695 5.294681549072266 C 47.94477844238281 7.894550323486328 49.98632049560547 10.92287063598633 51.412841796875 14.29552841186523 C 52.89039993286133 17.78887176513672 53.63957977294922 21.49795913696289 53.63957977294922 25.31978988647461 C 53.63957977294922 29.14162063598633 52.89039993286133 32.8507080078125 51.412841796875 36.34404754638672 C 49.98632049560547 39.71670913696289 47.94477844238281 42.74502944946289 45.34489822387695 45.34489822387695 C 42.74502944946289 47.94477844238281 39.71670913696289 49.98632049560547 36.34404754638672 51.412841796875 C 32.8507080078125 52.89039993286133 29.14162063598633 53.63957977294922 25.31978988647461 53.63957977294922 C 21.49795913696289 53.63957977294922 17.78887176513672 52.89039993286133 14.29552841186523 51.412841796875 C 10.92287063598633 49.98632049560547 7.894550323486328 47.94477844238281 5.294681549072266 45.34489822387695 C 2.694801330566406 42.74502944946289 0.65325927734375 39.71670913696289 -0.7732582092285156 36.34404754638672 C -2.250820159912109 32.8507080078125 -3 29.14162063598633 -3 25.31978988647461 C -3 21.49795913696289 -2.250820159912109 17.78887176513672 -0.7732582092285156 14.29552841186523 C 0.65325927734375 10.92287063598633 2.694801330566406 7.894550323486328 5.294681549072266 5.294681549072266 C 7.894550323486328 2.694801330566406 10.92287063598633 0.65325927734375 14.29552841186523 -0.7732582092285156 C 17.78887176513672 -2.250820159912109 21.49795913696289 -3 25.31978988647461 -3 Z" stroke="none" fill="#f5f5f5"/>
    </g>
    <g id="Group_60645" data-name="Group 60645" transform="translate(362.842 145.101)">
      <g id="Group_60644" data-name="Group 60644">
        <path id="Path_286745" data-name="Path 286745" d="M366.144,162.891l-.6-6.775a8.621,8.621,0,0,1,1.313-5.437,5.9,5.9,0,0,1,1.082-1.291,13.378,13.378,0,0,1,9.178-3.662,11.527,11.527,0,0,1,8.612,4.535,8.676,8.676,0,0,1,1.855,5.452l-.054,7.857" transform="translate(-364.149 -145.726)" fill="#fff"/>
        <path id="Path_286746" data-name="Path 286746" d="M383.792,183.6l.117-7.2-7.219,4.938-7.22-4.938.125,7.328c0,.925.054,1.8.076,2.727.017.726-1.977,2.088-5.654,2.381l12.189.6h.967l13.274-.314c-5.552,0-6.62-1.968-6.6-2.695C383.866,185.5,383.792,184.524,383.792,183.6Z" transform="translate(-364.016 -148.446)" fill="#fff"/>
        <path id="Path_286747" data-name="Path 286747" d="M387.895,163.6a1.374,1.374,0,0,0-1.338.1,15.2,15.2,0,0,0-1.549-7.9,1.288,1.288,0,0,0-1.719-.559,18.843,18.843,0,0,1-13,0,1.289,1.289,0,0,0-1.72.559,15.2,15.2,0,0,0-1.549,7.9,1.374,1.374,0,0,0-1.338-.1c-.663.363-.588,2.264-.513,2.563a7.943,7.943,0,0,0,1.213,3.138c.8.889,1.188.688,1.188.688s.983,4.648,2.384,6.448a19.589,19.589,0,0,0,4.3,3.935,10.829,10.829,0,0,0,5.069,0,19.612,19.612,0,0,0,4.3-3.935c1.4-1.8,2.385-6.448,2.385-6.448s.387.2,1.187-.688a7.944,7.944,0,0,0,1.213-3.138C388.483,165.867,388.558,163.966,387.895,163.6Z" transform="translate(-364.114 -146.558)" fill="#fff"/>
      </g>
      <path id="Path_286748" data-name="Path 286748" d="M364.016,190.042s5.292,3.625,11.069,3.788c5.318.149,9.458.186,15.362-3.5Z" transform="translate(-364.016 -149.657)" fill="#fff"/>
    </g>
  </g>
</svg>
