<svg xmlns="http://www.w3.org/2000/svg" width="168.84" height="52.111" viewBox="0 0 168.84 52.111"><g transform="translate(0)" stroke="#fff" stroke-width="1"><rect width="168.84" height="52.111" rx="5" stroke="none"/><rect x="0.5" y="0.5" width="167.84" height="51.111" rx="4.5" fill="none"/></g><g transform="translate(9.793 6.56)"><path d="M170.238,206l-19.292,18.93a4.118,4.118,0,0,1-1.613-3.292V190.395a4.118,4.118,0,0,1,1.613-3.292Z" transform="translate(-149.334 -186.263)" fill="#008eff"/><path d="M300.108,271.308A4.165,4.165,0,0,1,298,274.93l-6.057,3.358-7.144-6.979,7.144-6.979L298,267.72A4.152,4.152,0,0,1,300.108,271.308Z" transform="translate(-263.895 -251.572)" fill="#ffd500"/><path d="M186.221,316.535,164.23,328.815a4.279,4.279,0,0,1-1.975.494,3.744,3.744,0,0,1-2.041-.56,4.876,4.876,0,0,1-.428-.263l19.292-18.929Z" transform="translate(-158.173 -289.819)" fill="#f12213"/><path d="M186.222,194.416l-7.144,6.979-19.292-18.9a4.91,4.91,0,0,1,.428-.263,3.984,3.984,0,0,1,4.016-.066Z" transform="translate(-158.174 -181.659)" fill="#30df37"/></g><g transform="translate(52.506 13.483)"><path d="M4.675-.252a1.8,1.8,0,0,1-.816.581,3.328,3.328,0,0,1-1.184.2A2.334,2.334,0,0,1,1.468.217a2.059,2.059,0,0,1-.81-.885,3.1,3.1,0,0,1-.3-1.343v-.425a2.87,2.87,0,0,1,.588-1.92,2.041,2.041,0,0,1,1.642-.691A2.159,2.159,0,0,1,4.031-4.6a1.934,1.934,0,0,1,.641,1.29H3.748a1.039,1.039,0,0,0-1.136-.979,1.113,1.113,0,0,0-.963.456,2.322,2.322,0,0,0-.341,1.338v.417A2.205,2.205,0,0,0,1.679-.711a1.222,1.222,0,0,0,1.03.486A1.358,1.358,0,0,0,3.737-.553V-1.615H2.619V-2.33H4.675Zm4.2-1.717H6.653V-.3h2.6V.452H5.71V-4.97H9.23v.76H6.653v1.5H8.88Zm5.136-2.242H12.325V.452H11.39V-4.211H9.714v-.76h4.3ZM17.4.452h-.939V-4.97H17.4Zm4.968-4.663H20.675V.452H19.74V-4.211H18.064v-.76h4.3ZM29.08-2.118a3.327,3.327,0,0,1-.276,1.4A2.084,2.084,0,0,1,28.017.2a2.167,2.167,0,0,1-1.179.322A2.172,2.172,0,0,1,25.663.2a2.116,2.116,0,0,1-.8-.918,3.223,3.223,0,0,1-.285-1.374v-.305a3.3,3.3,0,0,1,.281-1.4,2.113,2.113,0,0,1,.793-.929,2.16,2.16,0,0,1,1.175-.322,2.179,2.179,0,0,1,1.175.318,2.087,2.087,0,0,1,.791.916,3.291,3.291,0,0,1,.283,1.391ZM28.138-2.4A2.37,2.37,0,0,0,27.8-3.782a1.115,1.115,0,0,0-.966-.48,1.111,1.111,0,0,0-.955.479,2.325,2.325,0,0,0-.352,1.354v.313a2.352,2.352,0,0,0,.348,1.382,1.121,1.121,0,0,0,.966.488A1.108,1.108,0,0,0,27.8-.725a2.4,2.4,0,0,0,.337-1.393ZM34.32.452h-.942L30.961-3.4V.452h-.942V-4.97h.942l2.425,3.862V-4.97h.935Z" transform="translate(-0.362 5.045)" fill="#fff"/><path d="M9.491-.466A3.879,3.879,0,0,1,7.786.655a7.143,7.143,0,0,1-2.443.4A4.84,4.84,0,0,1,2.873.439,4.1,4.1,0,0,1,1.235-1.345,6.279,6.279,0,0,1,.643-4.094v-.737A6.668,6.668,0,0,1,1.19-7.643,4.05,4.05,0,0,1,2.769-9.46a4.549,4.549,0,0,1,2.417-.629A4.53,4.53,0,0,1,8.2-9.17,3.931,3.931,0,0,1,9.491-6.492H7.317a2.162,2.162,0,0,0-.659-1.363,2.105,2.105,0,0,0-1.4-.432,1.981,1.981,0,0,0-1.736.857,4.5,4.5,0,0,0-.6,2.547v.693a4.288,4.288,0,0,0,.648,2.577,2.219,2.219,0,0,0,1.9.871,2.479,2.479,0,0,0,1.8-.536v-1.87H5.223V-4.794H9.491ZM20.21-4.273a6.547,6.547,0,0,1-.566,2.808A4.263,4.263,0,0,1,18.024.4a4.481,4.481,0,0,1-2.417.655A4.512,4.512,0,0,1,13.2.405a4.305,4.305,0,0,1-1.639-1.851,6.36,6.36,0,0,1-.588-2.767v-.536a6.513,6.513,0,0,1,.577-2.819,4.3,4.3,0,0,1,1.631-1.87,4.487,4.487,0,0,1,2.41-.652A4.487,4.487,0,0,1,18-9.438a4.3,4.3,0,0,1,1.631,1.87,6.494,6.494,0,0,1,.577,2.812Zm-2.264-.492a4.564,4.564,0,0,0-.611-2.592,1.99,1.99,0,0,0-1.743-.886,1.991,1.991,0,0,0-1.736.875A4.512,4.512,0,0,0,13.238-4.8v.529A4.621,4.621,0,0,0,13.849-1.7a1.985,1.985,0,0,0,1.758.916,1.967,1.967,0,0,0,1.728-.883,4.594,4.594,0,0,0,.611-2.573Zm12.8.492a6.547,6.547,0,0,1-.566,2.808A4.263,4.263,0,0,1,28.556.4a4.481,4.481,0,0,1-2.417.655A4.512,4.512,0,0,1,23.733.405a4.305,4.305,0,0,1-1.639-1.851,6.36,6.36,0,0,1-.588-2.767v-.536a6.513,6.513,0,0,1,.577-2.819,4.3,4.3,0,0,1,1.631-1.87,4.487,4.487,0,0,1,2.41-.652,4.487,4.487,0,0,1,2.41.652,4.3,4.3,0,0,1,1.631,1.87,6.494,6.494,0,0,1,.577,2.812Zm-2.264-.492a4.564,4.564,0,0,0-.611-2.592,1.99,1.99,0,0,0-1.743-.886,1.991,1.991,0,0,0-1.736.875A4.512,4.512,0,0,0,23.77-4.8v.529A4.621,4.621,0,0,0,24.381-1.7a1.985,1.985,0,0,0,1.758.916,1.967,1.967,0,0,0,1.728-.883,4.594,4.594,0,0,0,.611-2.573Zm12.469,4.3A3.879,3.879,0,0,1,39.241.655a7.143,7.143,0,0,1-2.443.4A4.84,4.84,0,0,1,34.329.439,4.1,4.1,0,0,1,32.69-1.345,6.279,6.279,0,0,1,32.1-4.094v-.737a6.668,6.668,0,0,1,.547-2.812A4.05,4.05,0,0,1,34.224-9.46a4.549,4.549,0,0,1,2.417-.629,4.53,4.53,0,0,1,3.017.92,3.931,3.931,0,0,1,1.289,2.678H38.772a2.162,2.162,0,0,0-.659-1.363,2.105,2.105,0,0,0-1.4-.432,1.981,1.981,0,0,0-1.736.857,4.5,4.5,0,0,0-.6,2.547v.693a4.288,4.288,0,0,0,.648,2.577,2.219,2.219,0,0,0,1.9.871,2.479,2.479,0,0,0,1.8-.536v-1.87H36.679V-4.794h4.268Zm4.045-.425h4.745V.9H42.757V-9.941h2.235ZM57.542-3.8h-4.29v2.9h5.035V.9h-7.27V-9.941h7.255v1.81h-5.02v2.585h4.29Zm11.888.879V.9H67.2V-9.941h4.231a4.895,4.895,0,0,1,2.149.447A3.293,3.293,0,0,1,75-8.224a3.541,3.541,0,0,1,.5,1.873A3.114,3.114,0,0,1,74.41-3.837a4.545,4.545,0,0,1-3.02.92Zm0-1.81h2a1.963,1.963,0,0,0,1.352-.417,1.517,1.517,0,0,0,.466-1.192,1.789,1.789,0,0,0-.469-1.289,1.753,1.753,0,0,0-1.3-.507H69.43ZM79.27-.891h4.745V.9H77.035V-9.941H79.27ZM91.56-1.33H87.642L86.9.9H84.521L88.558-9.941h2.071L94.688.9H92.312ZM88.245-3.14h2.711L89.593-7.2ZM98.323-5.055l2.257-4.886h2.443l-3.56,6.912V.9H97.191V-3.029l-3.56-6.912h2.451Z" transform="translate(-0.337 22.511)" fill="#fff"/></g></svg>