<svg xmlns="http://www.w3.org/2000/svg" width="81.663" height="110.291" viewBox="0 0 81.663 110.291"><g transform="translate(11.904)"><g transform="translate(22.532)"><path d="M126.216,74.7a2.608,2.608,0,0,0,1.226.262,54.915,54.915,0,0,0,6.1-1.317,11.789,11.789,0,0,1-1.519-2.477s-.258.833-.62.863c-.886.074-.894-.748-1.019-1.156s-3.04-2.441-2.826-3.212,2.533-.361,2.533-.361-1.151-.493-2.01-3.207.123-4.465,1.4-6.262,5.2-3,7.933-2.576a5.189,5.189,0,0,1,4.07,4.017,22.923,22.923,0,0,1,.373,3.712c.76-1.723,2.436-1.264,2.55-.73s-.749,2.917-.535,3.865.5,1.388.039,1.584a3.38,3.38,0,0,1-1.5-.055,10.5,10.5,0,0,1,.275,1.919,21.37,21.37,0,0,1-.83,2.461,8.862,8.862,0,0,0,3.6-.865,3.6,3.6,0,0,0,1.5-2.326s-2.083-13.365-2.262-14.5-1.308-2.113-4.058-2.373S129.351,54.011,126,54.31s-2.932,2.553-2.932,2.553l2.69,16.98C125.8,74.412,125.794,74.424,126.216,74.7Z" transform="translate(-123.048 -51.954)" fill="#fff"/></g><g transform="translate(0 19.786)"><g transform="translate(0 2.837)"><path d="M127.47,90.261a20.116,20.116,0,0,1-.045-5.989c.159-1.333,3.034-9.915,4.267-11.579s11.35-4.609,11.35-4.609-.3-.6-.686-1.217c-5.6,1.036-11.4,2.15-14.859,2.894-5.305,1.141-5.4,5.341-5.4,5.341V93.116c0,.065,0,.13.006.2.012.276-.017,1.151-.044,1.955l-.068.026c-.678.252-5.134.853-5.868,1.144a13.363,13.363,0,0,0-6.148,3.448,6.022,6.022,0,0,0-1.039,7.175,3.812,3.812,0,0,0,.8,1.057c3.086,2.888,8.115,2.618,8.115,2.618,9.38.008,9.111-9.205,9.111-9.205a24.742,24.742,0,0,1,.343-5.561,28.569,28.569,0,0,0,.015-4.14C127.373,91.329,127.423,90.8,127.47,90.261Z" transform="translate(-108.195 -66.867)" fill="#fff"/></g><g transform="translate(35.212)"><path d="M153.985,69.425c-.146-5.29-6.185-4.481-8.439-4.232-.8.086-3.856.6-7.807,1.306a1.608,1.608,0,0,0,.376,1.236c.545.393,2.963.627,3.418,1.141s3.759,1.362,4.742,1.833,2.157,2.813,2.391,3.515.942,1.077,1.406,1.968.7,4.358.8,5.156.5,1.843.121,2.5a1.562,1.562,0,0,0-.221,1.751c.328.89.235.988.082,2.87-.224,2.738-5.334,5.5-5.334,5.5l-3.944.22a15.275,15.275,0,0,1-1.667.5,16.07,16.07,0,0,0-6.378,3.574c-3.218,2.691-1.993,6.558-1.346,7.84a4.071,4.071,0,0,0,.862,1.136c3.315,3.1,8.718,2.814,8.718,2.814,12.587-.311,12.223-9.892,12.223-9.892S154.131,74.713,153.985,69.425Z" transform="translate(-131.406 -64.997)" fill="#fff"/></g></g></g><path d="M129.42,71.422l.029.009,0,0Z" transform="translate(-85.317 -41.889)" fill="#fff"/><g transform="translate(36.034 18.683)"><path d="M128.19,74.229l.086-.223a2.154,2.154,0,0,1-.22.009C128.086,74.073,128.142,74.159,128.19,74.229Z" transform="translate(-122.056 -59.237)" fill="#fff"/><path d="M128.964,76.041l-.138-.137-.07.152C128.826,76.053,128.894,76.042,128.964,76.041Z" transform="translate(-121.694 -58.255)" fill="#fff"/><path d="M130.276,75.91a1.952,1.952,0,0,1,.862-1.057l.111-.061a1.285,1.285,0,0,0,.429-.3.713.713,0,0,0-.134-.745.456.456,0,0,0-.481-.155,4.612,4.612,0,0,0-1.142.461c-.179.385-.367.79-.56,1.208C129.672,75.47,129.971,75.694,130.276,75.91Z" transform="translate(-121.381 -59.46)" fill="#fff"/><path d="M130.556,75.03a.6.6,0,0,1-.208.243.673.673,0,0,1,.188.171,1.057,1.057,0,0,1,.156.252c.61-1.233,2.779-6.355,3.322-7.661.422-1.016,1.167-2.875,1.306-3.23a.742.742,0,0,0-.325-.473.983.983,0,0,0-.839.073c-.338.775-2.8,6.409-4.239,9.627a2.195,2.195,0,0,1,.47.267A.823.823,0,0,1,130.556,75.03Z" transform="translate(-121.093 -64.27)" fill="#fff"/><path d="M129.087,75.783l-.232-.232-.789-.027c-.146.384-.291.765-.429,1.132a5.054,5.054,0,0,1,1.212-.352C128.928,76.132,129.007,75.958,129.087,75.783Z" transform="translate(-122.273 -58.452)" fill="#fff"/><path d="M129.324,78.022a8.538,8.538,0,0,1-1.057.5l-.088.231c-.431,1.1-3.617,8.074-4.078,9h0a1.37,1.37,0,0,0,.711.443,2.22,2.22,0,0,0,.766-.225c.261-.7,2.178-5.86,2.987-8.049a.749.749,0,0,1,.24-.648l.094-.256C128.954,78.876,129.107,78.517,129.324,78.022Z" transform="translate(-124.101 -57.16)" fill="#fff"/><path d="M130.877,72.648a3.288,3.288,0,0,1-.843-.1,1.1,1.1,0,0,1,.164.9.8.8,0,0,1-.607.47,1.127,1.127,0,0,1-.124.024,1.9,1.9,0,0,1-.293-.018c.011.017.032.035.033.049a.607.607,0,0,1-.228.642,2.289,2.289,0,0,1-.363.1q-.143.373-.3.768a6.646,6.646,0,0,1,1.019.168l.121.03.029.008c.133-.293.267-.58.4-.859l.1-.22c.35-.754.667-1.432.919-1.958Z" transform="translate(-121.919 -59.993)" fill="#fff"/><g transform="translate(4.862 9.787)"><path d="M130.048,72.544l-.009-.006c-.065-.023-.131-.041-.2-.061s-.132-.046-.2-.064a5.571,5.571,0,0,0-.651-.138,2.537,2.537,0,0,0-1.28.176.668.668,0,0,0-.375.4.764.764,0,0,0,.071.511,4.22,4.22,0,0,1,1.685.306c.012.006.026.006.038.012a1.8,1.8,0,0,0,.2.064,1.627,1.627,0,0,0,.206.065,1.6,1.6,0,0,0,.5.008.581.581,0,0,0,.44-.32.9.9,0,0,0-.194-.769A.686.686,0,0,0,130.048,72.544Z" transform="translate(-127.298 -69.925)" fill="#fff"/><path d="M129.718,71.523c.071.011.143.024.212.038s.144.03.214.047a3.507,3.507,0,0,1,.648.22.421.421,0,0,0,.228-.2.664.664,0,0,0-.144-.567,2.115,2.115,0,0,0-.4-.2,1.9,1.9,0,0,0-.206-.062c-.07-.018-.138-.036-.209-.049a2.042,2.042,0,0,0-1.088.108.5.5,0,0,0-.275.3.545.545,0,0,0,.023.279A6.342,6.342,0,0,1,129.718,71.523Z" transform="translate(-126.589 -70.722)" fill="#fff"/><path d="M131.635,72.331a.9.9,0,0,0-.194-.414.7.7,0,0,0-.275-.194,1.855,1.855,0,0,0-.173-.073,3.868,3.868,0,0,0-.488-.143c-.07-.015-.141-.03-.214-.044l0,0-.029-.009c-.061-.011-.121-.021-.184-.03a6.067,6.067,0,0,0-.983-.073,2.217,2.217,0,0,0-.909.158.67.67,0,0,0-.375.4.756.756,0,0,0,.073.511l0,0a6.22,6.22,0,0,1,.84.071,6.152,6.152,0,0,1,.774.162c.067.02.133.042.2.064s.121.035.181.056l.026.008.018.006a2.761,2.761,0,0,0,1.274.215.59.59,0,0,0,.132-.055.562.562,0,0,0,.308-.267A.9.9,0,0,0,131.635,72.331Z" transform="translate(-127.053 -70.395)" fill="#fff"/><path d="M129.55,73.6c-.02-.017-.047-.033-.076-.053a1.987,1.987,0,0,0-.184-.108l-.006,0c-.062-.033-.127-.058-.191-.085-.039-.018-.079-.038-.118-.053l-.05-.017a2.608,2.608,0,0,0-1.025-.137.771.771,0,0,0-.08.02,1.1,1.1,0,0,0-.14.033.554.554,0,0,0-.341.316,1.21,1.21,0,0,0,.1.824,1.6,1.6,0,0,0,1.029.631c.059.009.115.026.174.03-.027-.05-.073-.12-.115-.184l-.03-.044c-.173-.264-.211-.331-.184-.382l.02-.038.044-.008a2.271,2.271,0,0,0,.337-.011c.076,0,.153,0,.229-.012a2.546,2.546,0,0,0,.256-.065,2.3,2.3,0,0,0,.249-.062.507.507,0,0,0,.171-.523C129.615,73.658,129.592,73.632,129.55,73.6Z" transform="translate(-127.306 -69.472)" fill="#fff"/></g><path d="M139.98,80.406l-1,.114-.032-.02c-.024-.014-2.42-1.418-3.375-2.178l-.455-.369c-.991-.828-2.022-1.6-3.076-2.35l0,0-.009-.006c-.311-.221-.616-.451-.933-.663l-.036-.026c-.055-.018-.109-.024-.164-.041-.021-.006-.044-.009-.067-.017-.038-.011-.077-.018-.117-.029l-.024-.006-.094-.023a6.366,6.366,0,0,0-1.063-.173c-.076-.006-.15-.017-.225-.02s-.146-.015-.218-.017a6.463,6.463,0,0,0-1.942.282.41.41,0,0,0-.055.759,1.571,1.571,0,0,0,.951.138c.011,0,.267.008.589.02l.221.008.228.009.754.026h.042l.238.24.159.159.156.158.391.393a5.446,5.446,0,0,1,.587.038,6.617,6.617,0,0,1,2.045.66l-.414.155a4.743,4.743,0,0,0-1.658-.6,5.292,5.292,0,0,0-1.239-.017c-.08.008-.161.012-.24.023s-.137.008-.2.02l-.008-.035-.015,0a4.765,4.765,0,0,0-1.211.39c-.1.047-.191.1-.285.149s-.2.12-.3.184a4.675,4.675,0,0,0-.78.649c.156-.05.363-.114.607-.19l.255-.079.259-.079c.332-.1.713-.214,1.139-.34l.1-.029c.052-.009.1-.014.156-.021.082-.012.162-.024.244-.033a6.028,6.028,0,0,1,3.491.661l-.35.193a5.132,5.132,0,0,0-3.234-.645c-.082.017-.165.033-.246.058l-.012,0-.267.079c-.422.124-.8.237-1.118.335l-.259.079-.255.079c-.5.155-.786.249-.822.259h0c-.012,0-1.142.516-.947,1.13.177.563.948.429,1.089.4l.03-.006c.082-.029.158-.07.238-.1s.181-.076.272-.114a8.548,8.548,0,0,0,1.1-.555c.085-.052.176-.094.259-.147.012,0,.026,0,.039-.009.082-.024.168-.03.252-.05a4.752,4.752,0,0,1,1.434-.127,3.908,3.908,0,0,1,1.484.531l.34.215-.4-.026a5.9,5.9,0,0,0-1.646.179,8.067,8.067,0,0,0-1.94.928c-.08.052-.162.1-.241.156a.394.394,0,0,0-.055.046.544.544,0,0,0-.206.56c0,.02,0,.041.009.062a.567.567,0,0,0,.117.2.317.317,0,0,0,.243.124,2,2,0,0,0,.66-.231,4.831,4.831,0,0,1,.728-.3c.1-.032.215-.077.334-.126a2.943,2.943,0,0,1,2.316-.111c.15.05.344.273.7.7a7.231,7.231,0,0,0,1.971,1.81,4.067,4.067,0,0,0,2.876.047l.023,0a5.47,5.47,0,0,1,1.948.326c1.226.346,3.993,1.226,4.8,1.485C144.191,84.8,142.381,81.231,139.98,80.406Z" transform="translate(-123.209 -58.939)" fill="#fff"/></g><g transform="translate(0 71.962)"><rect width="1.699" height="4.551" transform="translate(8.314 0.853)" fill="#fff"/><path d="M130.8,100.106l-1.2,1.2,3.118,3.118h2.4Z" transform="translate(-85.227 -99.021)" fill="#fff"/><path d="M142.751,118.55a2.157,2.157,0,0,0-1.569.625,2.471,2.471,0,0,0-.7,1.669l0,0h4.463a2.707,2.707,0,0,0-.514-1.514A2.076,2.076,0,0,0,142.751,118.55Z" transform="translate(-79.599 -89.486)" fill="#fff"/><path d="M128.533,118.482h0a3.007,3.007,0,1,0,3.007,3.007A3.007,3.007,0,0,0,128.533,118.482Zm.435,3.893-1.255.725v-2.9l1.255.724,1.258.725Z" transform="translate(-87.331 -89.521)" fill="#fff"/><path d="M111.559,118.55a2.161,2.161,0,0,0-1.57.625,2.469,2.469,0,0,0-.7,1.669l0,0h4.463a2.7,2.7,0,0,0-.514-1.512A2.073,2.073,0,0,0,111.559,118.55Z" transform="translate(-95.726 -89.486)" fill="#fff"/><path d="M181.337,116.751H101.022a.674.674,0,0,0-.674.674v10.646a.674.674,0,0,0,.674.674h80.316a.674.674,0,0,0,.674-.674V117.425A.674.674,0,0,0,181.337,116.751Zm-54.789,1.464.03,0h-.044Q126.526,118.21,126.548,118.215Zm-18.788,7.248a2.564,2.564,0,0,1-1.141.927,4.177,4.177,0,0,1-1.685.326,3.754,3.754,0,0,1-2.376-.646,3.015,3.015,0,0,1-1.042-1.918h0l1.34-.211a1.869,1.869,0,0,0,.628,1.233,2.176,2.176,0,0,0,1.441.428,2.115,2.115,0,0,0,1.385-.379,1.138,1.138,0,0,0,.452-.892.828.828,0,0,0-.4-.722,5.869,5.869,0,0,0-1.385-.458,12.593,12.593,0,0,1-2.065-.651,1.972,1.972,0,0,1-1.171-1.833,2.047,2.047,0,0,1,.246-.989,2.188,2.188,0,0,1,.666-.757,2.812,2.812,0,0,1,.862-.394,4.124,4.124,0,0,1,1.17-.162,4.641,4.641,0,0,1,1.652.272,2.257,2.257,0,0,1,1.05.734,2.87,2.87,0,0,1,.466,1.238l-1.324.179a1.45,1.45,0,0,0-.522-.963,1.919,1.919,0,0,0-1.223-.343,2.215,2.215,0,0,0-1.332.309.9.9,0,0,0-.4.722.751.751,0,0,0,.165.475,1.206,1.206,0,0,0,.519.361q.2.075,1.2.341a16.875,16.875,0,0,1,2.006.63,2.046,2.046,0,0,1,.892.71,2,2,0,0,1,.323,1.159A2.281,2.281,0,0,1,107.76,125.463Zm12.036-2.574h-5.959a3.077,3.077,0,0,0,.745,2.018,2.22,2.22,0,0,0,1.67.7,2.073,2.073,0,0,0,1.271-.391,2.586,2.586,0,0,0,.836-1.248l1.4.171a3.417,3.417,0,0,1-1.226,1.9,4.154,4.154,0,0,1-5.068-.4,4.223,4.223,0,0,1-1.027-3.029,4.411,4.411,0,0,1,1.039-3.131,3.515,3.515,0,0,1,2.693-1.112,3.419,3.419,0,0,1,2.618,1.091,4.328,4.328,0,0,1,1.015,3.07C119.8,122.608,119.8,122.728,119.8,122.889Zm7.389,3.647h-1.414l-2.447-7.992h1.4L126,123.157l.475,1.716c.02-.085.158-.636.413-1.648l.614-2.259.575,2.194Zm2.013,0-2.1-8,.909.008,2.1,7.992Zm2.6,0h-1.358l-2.1-7.992h1.209l1.2,4.634.4,1.528.458-1.54,1.37-4.621,1.32,0Zm14.075-.067h-1.13v-1.575a4.063,4.063,0,1,1,0-5.021V118.3h1.13Zm9.5-1a2.571,2.571,0,0,1-1.141.925,4.154,4.154,0,0,1-1.687.326,3.752,3.752,0,0,1-2.374-.646,3.015,3.015,0,0,1-1.042-1.918h0l1.34-.211a1.869,1.869,0,0,0,.628,1.233,2.174,2.174,0,0,0,1.441.428,2.115,2.115,0,0,0,1.385-.379,1.136,1.136,0,0,0,.451-.892.826.826,0,0,0-.4-.722,5.869,5.869,0,0,0-1.385-.458,12.6,12.6,0,0,1-2.065-.651,1.969,1.969,0,0,1-1.171-1.833,2.048,2.048,0,0,1,.246-.989,2.169,2.169,0,0,1,.666-.755,2.781,2.781,0,0,1,.862-.4,4.071,4.071,0,0,1,1.17-.162,4.64,4.64,0,0,1,1.652.272,2.257,2.257,0,0,1,1.05.734,2.843,2.843,0,0,1,.466,1.238l-1.324.179a1.447,1.447,0,0,0-.522-.963,1.91,1.91,0,0,0-1.223-.343,2.222,2.222,0,0,0-1.333.309.9.9,0,0,0-.4.722.742.742,0,0,0,.165.475,1.206,1.206,0,0,0,.519.361q.2.075,1.2.341a16.874,16.874,0,0,1,2.006.63,2.033,2.033,0,0,1,.89.71,1.991,1.991,0,0,1,.325,1.159A2.29,2.29,0,0,1,155.369,125.465Zm11.748-2.576h-5.96a3.078,3.078,0,0,0,.746,2.018,2.218,2.218,0,0,0,1.67.7,2.076,2.076,0,0,0,1.271-.391,2.6,2.6,0,0,0,.836-1.248l1.4.171a3.417,3.417,0,0,1-1.226,1.9,4.154,4.154,0,0,1-5.068-.4,4.223,4.223,0,0,1-1.027-3.029,4.418,4.418,0,0,1,1.039-3.131,3.517,3.517,0,0,1,2.693-1.112,3.416,3.416,0,0,1,2.618,1.091,4.336,4.336,0,0,1,1.016,3.07C167.124,122.608,167.121,122.728,167.117,122.889Zm6.931,3.647h-1.414l-2.447-7.992h1.4l1.271,4.613.475,1.716c.02-.085.158-.636.414-1.648l.613-2.259.573,2.194Zm2.015,0-2.1-8,.909.008,2.1,7.992Zm2.59,0h-1.358l-2.1-7.992h1.214l1.2,4.634.4,1.528.458-1.54,1.368-4.621,1.317,0Z" transform="translate(-100.348 -90.415)" fill="#fff"/><path d="M119.945,117.824H121v-5.807a9.254,9.254,0,0,1-1.056.143Z" transform="translate(-90.216 -92.863)" fill="#fff"/><path d="M119.945,101.968v13.69a8.039,8.039,0,0,0,1.056-.187v-13.5Z" transform="translate(-90.216 -98.059)" fill="#fff"/><path d="M118.223,117.821h1.056V112.16a9.651,9.651,0,0,1-1.056-.137Z" transform="translate(-91.106 -92.86)" fill="#fff"/><path d="M119.279,101.968h-1.056v13.517a7.784,7.784,0,0,0,1.056.176Z" transform="translate(-91.106 -98.059)" fill="#fff"/><path d="M103.614,107.886a3.234,3.234,0,0,1,3.231-3.231h6.943V122.51h1.7l0-19.557H109.55v.73h-1.7v-.73h-1a4.938,4.938,0,0,0-4.932,4.932v14.627h1.7Z" transform="translate(-99.538 -97.549)" fill="#fff"/><rect width="1.699" height="0.729" transform="translate(8.314 5.404)" fill="#fff"/><path d="M129.606,107.534a2.881,2.881,0,0,1,2.879-2.879h7.3V122.51h1.7V102.953h-5.492l.127.127-1.2,1.2-1.327-1.329h-1.1a4.584,4.584,0,0,0-4.578,4.578v14.982h1.7Z" transform="translate(-86.099 -97.549)" fill="#fff"/><path d="M134.18,103.081l-.127-.127h-2.4l1.328,1.328Z" transform="translate(-84.164 -97.549)" fill="#fff"/><path d="M120.9,118.554v-1.737a7.965,7.965,0,0,1,1.807-15.724h0a7.965,7.965,0,0,1,1.861,15.71v1.742a9.673,9.673,0,1,0-3.668.009Z" transform="translate(-93.786 -99.391)" fill="#fff"/><path d="M119.67,111.033c-.253,0-.5-.015-.751-.038v1.7c.249.02.5.038.751.038.272,0,.54-.018.806-.041v-1.7A7.846,7.846,0,0,1,119.67,111.033Z" transform="translate(-90.746 -93.393)" fill="#fff"/><path d="M119.945,111.056v1.7a9.254,9.254,0,0,0,1.056-.143v-1.742A8.039,8.039,0,0,1,119.945,111.056Z" transform="translate(-90.216 -93.457)" fill="#fff"/><path d="M118.223,110.878v1.737a9.653,9.653,0,0,0,1.056.137v-1.7A7.784,7.784,0,0,1,118.223,110.878Z" transform="translate(-91.106 -93.452)" fill="#fff"/><path d="M143.929,103.968v16.171a8.928,8.928,0,0,0,1.056.141V103.968Z" transform="translate(-77.816 -97.025)" fill="#fff"/><path d="M145.6,103.99v16.275a8.981,8.981,0,0,0,1.056-.155V103.99Z" transform="translate(-76.949 -97.013)" fill="#fff"/><path d="M154.776,108.082v-1.7h-3.209a10.369,10.369,0,0,1,.511,1.7Z" transform="translate(-73.867 -95.776)" fill="#fff"/><path d="M148.682,123.056h.006a10.56,10.56,0,0,0,10.335-12.682h-.672v-1.7h.161a10.55,10.55,0,1,0-9.83,14.381Zm0-19.407h0a8.855,8.855,0,0,1,1.842,17.516v.61h-1.056v-.455c-.259.023-.52.039-.786.039-.237,0-.469-.017-.7-.035v.417h-1.056v-.558a8.855,8.855,0,0,1,1.757-17.534Z" transform="translate(-80.812 -98.067)" fill="#fff"/><path d="M143.929,115.186h1.056v-.417a8.928,8.928,0,0,1-1.056-.141Z" transform="translate(-77.816 -91.513)" fill="#fff"/><path d="M145.6,115.226h1.056v-.61a8.989,8.989,0,0,1-1.056.155Z" transform="translate(-76.949 -91.519)" fill="#fff"/><path d="M151.461,108.082h.672a10.369,10.369,0,0,0-.511-1.7h-.161Z" transform="translate(-73.921 -95.776)" fill="#fff"/><path d="M117.625,117.717q-.023,0-.014,0h.044Z" transform="translate(-91.424 -89.917)" fill="#fff"/></g></svg>