<svg xmlns="http://www.w3.org/2000/svg" width="169.882" height="52.111" viewBox="0 0 169.882 52.111"><g transform="translate(0)" stroke="#fff" stroke-width="1"><rect width="169.882" height="52.111" rx="5" stroke="none"/><rect x="0.5" y="0.5" width="168.882" height="51.111" rx="4.5" fill="none"/></g><g transform="translate(54.485 12.813)"><path d="M.506.471V-4.952h1.6a2.512,2.512,0,0,1,1.276.32,2.184,2.184,0,0,1,.862.909A2.885,2.885,0,0,1,4.55-2.375V-2.1A2.873,2.873,0,0,1,4.243-.747a2.158,2.158,0,0,1-.875.9,2.628,2.628,0,0,1-1.3.317Zm.942-4.663V-.282h.615A1.415,1.415,0,0,0,3.2-.745a2.02,2.02,0,0,0,.4-1.331v-.3a2.072,2.072,0,0,0-.384-1.348,1.36,1.36,0,0,0-1.114-.466ZM5.232-1.582a2.376,2.376,0,0,1,.235-1.067,1.714,1.714,0,0,1,.659-.73A1.857,1.857,0,0,1,7.1-3.634a1.76,1.76,0,0,1,1.324.525,2.065,2.065,0,0,1,.549,1.393l0,.212A2.4,2.4,0,0,1,8.75-.438a1.693,1.693,0,0,1-.655.726,1.871,1.871,0,0,1-.985.257A1.748,1.748,0,0,1,5.744-.023a2.175,2.175,0,0,1-.512-1.514Zm.905.078a1.624,1.624,0,0,0,.257.974.835.835,0,0,0,.715.352.826.826,0,0,0,.713-.358,1.793,1.793,0,0,0,.255-1.047,1.6,1.6,0,0,0-.263-.968A.838.838,0,0,0,7.1-2.907a.831.831,0,0,0-.7.352A1.76,1.76,0,0,0,6.137-1.5Zm7.147.726.641-2.782h.883l-1.1,4.03h-.745L12.1-2.3,11.25.471h-.745L9.4-3.559h.883l.652,2.752.827-2.752h.682Zm2.968-2.782.026.466a1.449,1.449,0,0,1,1.173-.54q1.259,0,1.281,1.441V.471h-.905V-2.14a.83.83,0,0,0-.166-.568.7.7,0,0,0-.542-.184.872.872,0,0,0-.816.5V.471H15.4v-4.03ZM20.617.471h-.905V-5.25h.905Zm.816-2.052a2.376,2.376,0,0,1,.235-1.067,1.714,1.714,0,0,1,.659-.73,1.857,1.857,0,0,1,.976-.255,1.76,1.76,0,0,1,1.324.525,2.065,2.065,0,0,1,.549,1.393l0,.212A2.4,2.4,0,0,1,24.95-.438a1.693,1.693,0,0,1-.655.726,1.871,1.871,0,0,1-.985.257,1.748,1.748,0,0,1-1.365-.568,2.175,2.175,0,0,1-.512-1.514Zm.905.078a1.624,1.624,0,0,0,.257.974.835.835,0,0,0,.715.352.826.826,0,0,0,.713-.358,1.793,1.793,0,0,0,.255-1.047,1.6,1.6,0,0,0-.263-.968.838.838,0,0,0-.713-.358.831.831,0,0,0-.7.352A1.76,1.76,0,0,0,22.338-1.5ZM28.352.471a1.4,1.4,0,0,1-.1-.376A1.409,1.409,0,0,1,27.19.545,1.422,1.422,0,0,1,26.2.2a1.108,1.108,0,0,1-.384-.857,1.144,1.144,0,0,1,.479-.989,2.319,2.319,0,0,1,1.369-.344h.555v-.264a.706.706,0,0,0-.175-.5.694.694,0,0,0-.533-.188A.8.8,0,0,0,27-2.79a.478.478,0,0,0-.2.393H25.9a1,1,0,0,1,.22-.62,1.464,1.464,0,0,1,.6-.453,2.1,2.1,0,0,1,.844-.164,1.691,1.691,0,0,1,1.128.356,1.268,1.268,0,0,1,.432,1V-.461a2.06,2.06,0,0,0,.153.868V.471Zm-.994-.652a1.029,1.029,0,0,0,.5-.13.871.871,0,0,0,.356-.35v-.76H27.73a1.334,1.334,0,0,0-.756.175.567.567,0,0,0-.253.5.529.529,0,0,0,.173.415A.671.671,0,0,0,27.358-.181ZM29.9-1.574a2.4,2.4,0,0,1,.432-1.5,1.384,1.384,0,0,1,1.158-.564,1.315,1.315,0,0,1,1.035.447V-5.25h.905V.471h-.819L32.568.053a1.334,1.334,0,0,1-1.084.492,1.376,1.376,0,0,1-1.145-.57A2.483,2.483,0,0,1,29.9-1.574Zm.905.078a1.677,1.677,0,0,0,.236.959.767.767,0,0,0,.672.344.855.855,0,0,0,.812-.5V-2.408a.842.842,0,0,0-.8-.484.773.773,0,0,0-.678.348A1.868,1.868,0,0,0,30.807-1.5Zm9.884-.6a3.327,3.327,0,0,1-.276,1.4,2.084,2.084,0,0,1-.788.924,2.167,2.167,0,0,1-1.179.322A2.172,2.172,0,0,1,37.274.223a2.116,2.116,0,0,1-.8-.918,3.223,3.223,0,0,1-.285-1.374v-.305a3.3,3.3,0,0,1,.281-1.4,2.113,2.113,0,0,1,.793-.929,2.16,2.16,0,0,1,1.175-.322,2.179,2.179,0,0,1,1.175.318,2.087,2.087,0,0,1,.791.916A3.291,3.291,0,0,1,40.691-2.4Zm-.942-.283a2.37,2.37,0,0,0-.341-1.382,1.115,1.115,0,0,0-.966-.48,1.111,1.111,0,0,0-.955.479,2.325,2.325,0,0,0-.352,1.354V-2.1a2.352,2.352,0,0,0,.348,1.382,1.121,1.121,0,0,0,.966.488,1.108,1.108,0,0,0,.963-.477A2.4,2.4,0,0,0,39.749-2.1ZM43.983.076a1.4,1.4,0,0,1-1.132.469,1.251,1.251,0,0,1-.993-.384,1.632,1.632,0,0,1-.337-1.11V-3.559h.905v2.6q0,.767.637.767a.894.894,0,0,0,.89-.473V-3.559h.905V.471h-.853ZM47.89-2.732a2.24,2.24,0,0,0-.369-.03.83.83,0,0,0-.838.477V.471h-.905v-4.03h.864l.022.451a1.02,1.02,0,0,1,.909-.525.847.847,0,0,1,.32.052Zm5.594,1.94h-2.1L50.944.471h-.979l2.048-5.423h.845L54.91.471h-.983Zm-1.836-.76h1.572L52.434-3.8Zm7.139.048a2.4,2.4,0,0,1-.425,1.492,1.36,1.36,0,0,1-1.14.557A1.369,1.369,0,0,1,56.162.109V2.02h-.905V-3.559h.834l.037.41a1.329,1.329,0,0,1,1.084-.484,1.374,1.374,0,0,1,1.156.549,2.463,2.463,0,0,1,.419,1.525Zm-.9-.078a1.681,1.681,0,0,0-.24-.957.781.781,0,0,0-.687-.354.833.833,0,0,0-.8.458V-.647a.84.84,0,0,0,.8.469.78.78,0,0,0,.676-.348A1.85,1.85,0,0,0,57.886-1.582Zm5.2.078a2.4,2.4,0,0,1-.425,1.492,1.36,1.36,0,0,1-1.14.557A1.369,1.369,0,0,1,60.456.109V2.02h-.905V-3.559h.834l.037.41a1.329,1.329,0,0,1,1.084-.484,1.374,1.374,0,0,1,1.156.549,2.463,2.463,0,0,1,.419,1.525Zm-.9-.078a1.681,1.681,0,0,0-.24-.957.781.781,0,0,0-.687-.354.833.833,0,0,0-.8.458V-.647a.84.84,0,0,0,.8.469.78.78,0,0,0,.676-.348A1.85,1.85,0,0,0,62.18-1.582ZM70.161-2.1a3.327,3.327,0,0,1-.276,1.4A2.084,2.084,0,0,1,69.1.223a2.167,2.167,0,0,1-1.179.322A2.172,2.172,0,0,1,66.744.223a2.116,2.116,0,0,1-.8-.918,3.223,3.223,0,0,1-.285-1.374v-.305a3.3,3.3,0,0,1,.281-1.4,2.113,2.113,0,0,1,.793-.929,2.16,2.16,0,0,1,1.175-.322,2.179,2.179,0,0,1,1.175.318,2.087,2.087,0,0,1,.791.916A3.291,3.291,0,0,1,70.161-2.4Zm-.942-.283a2.37,2.37,0,0,0-.341-1.382,1.115,1.115,0,0,0-.966-.48,1.111,1.111,0,0,0-.955.479A2.325,2.325,0,0,0,66.6-2.412V-2.1a2.352,2.352,0,0,0,.348,1.382,1.121,1.121,0,0,0,.966.488,1.108,1.108,0,0,0,.963-.477A2.4,2.4,0,0,0,69.219-2.1Zm2.633-1.177.026.466a1.449,1.449,0,0,1,1.173-.54q1.259,0,1.281,1.441V.471h-.9V-2.14a.83.83,0,0,0-.166-.568.7.7,0,0,0-.542-.184.872.872,0,0,0-.816.5V.471H71v-4.03Z" transform="translate(-0.007 5.25)" fill="#fff"/><path d="M7.087-1.33H3.169L2.424.9H.048L4.085-9.941H6.156L10.215.9H7.839ZM3.772-3.14H6.483L5.12-7.2Zm9.691.223V.9H11.228V-9.941h4.231a4.895,4.895,0,0,1,2.149.447,3.293,3.293,0,0,1,1.426,1.27,3.541,3.541,0,0,1,.5,1.873,3.114,3.114,0,0,1-1.091,2.514,4.545,4.545,0,0,1-3.02.92Zm0-1.81h2a1.963,1.963,0,0,0,1.352-.417,1.517,1.517,0,0,0,.466-1.192,1.789,1.789,0,0,0-.469-1.289,1.753,1.753,0,0,0-1.3-.507H13.463Zm9.84,1.81V.9H21.068V-9.941H25.3a4.895,4.895,0,0,1,2.149.447,3.293,3.293,0,0,1,1.426,1.27,3.541,3.541,0,0,1,.5,1.873,3.114,3.114,0,0,1-1.091,2.514,4.545,4.545,0,0,1-3.02.92Zm0-1.81h2a1.963,1.963,0,0,0,1.352-.417,1.517,1.517,0,0,0,.466-1.192,1.789,1.789,0,0,0-.469-1.289,1.753,1.753,0,0,0-1.3-.507H23.3ZM40.33-1.941a1.147,1.147,0,0,0-.447-.972,5.862,5.862,0,0,0-1.609-.715,11.405,11.405,0,0,1-1.84-.741,3.006,3.006,0,0,1-1.847-2.689,2.619,2.619,0,0,1,.5-1.568A3.231,3.231,0,0,1,36.5-9.7a5.355,5.355,0,0,1,2.082-.387,4.874,4.874,0,0,1,2.071.421,3.3,3.3,0,0,1,1.412,1.188,3.109,3.109,0,0,1,.5,1.743H40.337A1.462,1.462,0,0,0,39.868-7.9,1.929,1.929,0,0,0,38.55-8.31a2.061,2.061,0,0,0-1.274.346,1.092,1.092,0,0,0-.454.912,1.046,1.046,0,0,0,.533.886,6.017,6.017,0,0,0,1.568.67A6.775,6.775,0,0,1,41.7-4.071a2.833,2.833,0,0,1,.871,2.115A2.61,2.61,0,0,1,41.507.253a4.663,4.663,0,0,1-2.868.8A5.538,5.538,0,0,1,36.36.6,3.607,3.607,0,0,1,34.792-.66a3.214,3.214,0,0,1-.54-1.847h2.242q0,1.8,2.145,1.8a2.087,2.087,0,0,0,1.244-.324A1.054,1.054,0,0,0,40.33-1.941Zm11.918-6.19H48.925V.9H46.691V-8.131H43.413v-1.81h8.834Zm9.974,3.858a6.547,6.547,0,0,1-.566,2.808A4.263,4.263,0,0,1,60.035.4a4.481,4.481,0,0,1-2.417.655A4.512,4.512,0,0,1,55.212.405a4.305,4.305,0,0,1-1.639-1.851,6.36,6.36,0,0,1-.588-2.767v-.536a6.512,6.512,0,0,1,.577-2.819,4.3,4.3,0,0,1,1.631-1.87,4.487,4.487,0,0,1,2.41-.652,4.487,4.487,0,0,1,2.41.652,4.3,4.3,0,0,1,1.631,1.87,6.494,6.494,0,0,1,.577,2.812Zm-2.264-.492a4.564,4.564,0,0,0-.611-2.592A1.99,1.99,0,0,0,57.6-8.243a1.991,1.991,0,0,0-1.736.875A4.512,4.512,0,0,0,55.249-4.8v.529A4.621,4.621,0,0,0,55.86-1.7a1.985,1.985,0,0,0,1.758.916,1.967,1.967,0,0,0,1.728-.883,4.594,4.594,0,0,0,.611-2.573Zm7.9,1.7h-1.78V.9H63.845V-9.941h4.03a4.555,4.555,0,0,1,2.965.857,2.956,2.956,0,0,1,1.043,2.421,3.337,3.337,0,0,1-.48,1.851,3.277,3.277,0,0,1-1.456,1.181L72.292.8V.9h-2.4Zm-1.78-1.81h1.8a1.846,1.846,0,0,0,1.3-.428,1.531,1.531,0,0,0,.462-1.181,1.639,1.639,0,0,0-.436-1.207,1.811,1.811,0,0,0-1.337-.439h-1.8ZM80.105-3.8h-4.29v2.9H80.85V.9H73.58V-9.941h7.255v1.81h-5.02v2.585h4.29Z" transform="translate(-0.048 23.129)" fill="#fff"/></g><g transform="translate(14.733 7.298)"><g transform="translate(0)"><path d="M17.888,0h.24a7.21,7.21,0,0,1-1.816,5.433,5.628,5.628,0,0,1-4.954,2.326,6.993,6.993,0,0,1,1.848-5.265A7.982,7.982,0,0,1,17.888,0Z" transform="translate(2.315)" fill="#fff"/><path d="M29.553,22.086v.067a19.589,19.589,0,0,1-2.8,5.4c-1.069,1.471-2.379,3.451-4.718,3.451-2.021,0-3.363-1.3-5.435-1.335-2.191-.035-3.4,1.087-5.4,1.369h-.683a6.1,6.1,0,0,1-3.523-2.428A21.269,21.269,0,0,1,2.1,16.378V14.872a9.867,9.867,0,0,1,4.308-8.1A7.276,7.276,0,0,1,11.3,5.642a12.288,12.288,0,0,1,2.394.686,6.609,6.609,0,0,0,2.392.717,5.742,5.742,0,0,0,1.678-.513,10.325,10.325,0,0,1,5.4-.958,7.491,7.491,0,0,1,5.5,3.282,7.063,7.063,0,0,0-3.588,7.008A7.235,7.235,0,0,0,29.553,22.086Z" transform="translate(-2.104 2.627)" fill="#fff"/></g></g></svg>