<svg id="_128" data-name="128" xmlns="http://www.w3.org/2000/svg" width="64.785" height="64.791" viewBox="0 0 64.785 64.791">
  <rect id="Rectangle_13936" data-name="Rectangle 13936" width="64.785" height="64.785" fill="#fff" opacity="0"/>
  <g id="Group_53001" data-name="Group 53001" transform="translate(8.344 0.034)">
    <g id="Group_52973" data-name="Group 52973" transform="translate(7.038)">
      <g id="Group_52958" data-name="Group 52958" transform="translate(15.018)">
        <path id="Path_275464" data-name="Path 275464" d="M514.817,227.491c.042.416.828.283.828.283l.6-.131c.672-.158,1.83-.354,3.137-.557a7.012,7.012,0,0,1-.658-1.588s-.228.463-.442.447c-.524-.038-.453-.52-.488-.77s-1.55-1.706-1.354-2.136,1.513.023,1.513.023-.627-.394-.877-2.059a3.8,3.8,0,0,1,1.4-3.528c.913-.931,3.313-1.271,4.871-.77a3.067,3.067,0,0,1,2.006,2.722,13.628,13.628,0,0,1-.126,2.2c.6-.936,1.539-.513,1.557-.191s-.708,1.635-.67,2.208.162.857-.124.929a2.009,2.009,0,0,1-.87-.171,6.2,6.2,0,0,1-.018,1.146,1.913,1.913,0,0,1-.39.742c.961-.145,1.682-.261,1.916-.326.852-.237.649-.779.649-.779s.4-7.667.4-8.345-.568-1.355-2.151-1.762-6.78.145-8.767.01-1.948,1.22-1.948,1.22v10.164a7.34,7.34,0,0,0,0,1.013Z" transform="translate(-514.799 -214.931)" fill="#6b0911"/>
      </g>
      <g id="Group_52961" data-name="Group 52961" transform="translate(0 11.244)">
        <g id="Group_52959" data-name="Group 52959" transform="translate(0 1.677)">
          <path id="Path_275465" data-name="Path 275465" d="M384.159,351.013a11.887,11.887,0,0,1-.027-3.542,33.571,33.571,0,0,1,2.523-6.846c.73-.984,6.711-2.726,6.711-2.726s-.18-.357-.4-.719c-3.31.612-6.738,1.27-8.786,1.711-3.137.675-3.191,3.159-3.191,3.159V352.7c0,.038,0,.076,0,.115.007.163-.011.682-.026,1.157l-.04.016c-.4.149-3.036.5-3.47.675a7.91,7.91,0,0,0-3.636,2.039,3.561,3.561,0,0,0-.614,4.243,2.251,2.251,0,0,0,.474.625,7.3,7.3,0,0,0,4.8,1.548c5.546,0,5.387-5.443,5.387-5.443a14.658,14.658,0,0,1,.2-3.289,16.891,16.891,0,0,0,.01-2.447C384.1,351.644,384.132,351.329,384.159,351.013Z" transform="translate(-372.762 -337.181)" fill="#6b0911"/>
        </g>
        <g id="Group_52960" data-name="Group 52960" transform="translate(20.819)">
          <path id="Path_275466" data-name="Path 275466" d="M583.026,323.919c-.086-3.127-3.656-2.649-4.99-2.5-.476.051-2.28.357-4.616.772a.95.95,0,0,0,.223.731c.322.233,1.752.37,2.021.674a21.771,21.771,0,0,0,2.8,1.083,4.817,4.817,0,0,1,1.414,2.078c.139.415.557.638.831,1.164a15.239,15.239,0,0,1,.471,3.048c.055.471.294,1.09.072,1.478a.923.923,0,0,0-.131,1.036c.194.527.139.583.048,1.7-.132,1.619-3.154,3.253-3.154,3.253l-2.332.13a9.077,9.077,0,0,1-.986.3,9.5,9.5,0,0,0-3.771,2.113,3.786,3.786,0,0,0-.8,4.636,2.415,2.415,0,0,0,.509.672c1.96,1.835,5.155,1.664,5.155,1.664,7.442-.184,7.227-5.85,7.227-5.85S583.112,327.046,583.026,323.919Z" transform="translate(-569.674 -321.301)" fill="#6b0911"/>
        </g>
      </g>
      <g id="Group_52972" data-name="Group 52972" transform="translate(11.635 11.831) rotate(-8)">
        <g id="Group_52962" data-name="Group 52962" transform="translate(5.704 8.064)">
          <path id="Path_275467" data-name="Path 275467" d="M.87,1.508A1.093,1.093,0,0,1,1.477.887C1.585.844,1.8.78,1.857.692,2.047.4,1.821-.056,1.5.006A2.941,2.941,0,0,0,.322.41,2.954,2.954,0,0,0,0,1.231" transform="translate(0.07 0.071)" fill="#030504"/>
          <path id="Path_275468" data-name="Path 275468" d="M1.008,1.6.871,1.557a1.159,1.159,0,0,1,.65-.665l.07-.026A.773.773,0,0,0,1.867.724.42.42,0,0,0,1.85.277a.27.27,0,0,0-.269-.13A2.751,2.751,0,0,0,.445.53a2.75,2.75,0,0,0-.3.789L0,1.284A2.841,2.841,0,0,1,.339.433,3.067,3.067,0,0,1,1.553.006.4.4,0,0,1,1.968.2.56.56,0,0,1,1.987.8a.74.74,0,0,1-.348.2l-.066.025A1.024,1.024,0,0,0,1.008,1.6Z" transform="translate(0 0)" fill="#fff"/>
        </g>
        <g id="Group_52963" data-name="Group 52963" transform="translate(0 0)">
          <path id="Path_275469" data-name="Path 275469" d="M11.066.526s0-.735-.858-.467c0,0-3.806,6.188-4.07,6.527S3.529,11.25,3.153,11.927.067,16.835.007,16.893s.27.442.491.474a1.568,1.568,0,0,0,.57-.089s2.434-4.5,2.7-5.013,3.266-5.178,3.585-5.6,2.287-3.7,2.659-4.326S11.066.526,11.066.526Z" transform="translate(0.128 0.13)" fill="#030504"/>
          <path id="Path_275470" data-name="Path 275470" d="M.707,17.63a.722.722,0,0,1-.1-.007.982.982,0,0,1-.592-.51.161.161,0,0,1,.03-.175c.092-.121,2.75-4.267,3.126-4.94.09-.16.29-.526.547-.995C4.851,8.933,5.975,6.89,6.167,6.642,6.424,6.309,10.191.186,10.229.124l.025-.04L10.3.07a.835.835,0,0,1,.765.051.708.708,0,0,1,.253.534V.688L11.3.717c-.006.013-.685,1.2-1.051,1.818-.376.637-2.342,3.916-2.666,4.341-.337.441-3.309,5.081-3.574,5.578s-2.681,4.969-2.7,5.014l-.023.042-.046.016a1.862,1.862,0,0,1-.528.1Zm-.445-.575a.809.809,0,0,0,.38.318,1.308,1.308,0,0,0,.466-.069c.253-.468,2.429-4.492,2.681-4.969.266-.5,3.257-5.169,3.6-5.613.3-.395,2.2-3.548,2.65-4.316.331-.56.92-1.588,1.032-1.783a.438.438,0,0,0-.152-.3.576.576,0,0,0-.5-.027c-.359.583-3.795,6.167-4.052,6.5-.195.253-1.648,2.905-2.429,4.33-.258.47-.458.836-.548,1C3.048,12.73.608,16.55.262,17.056Zm-.023.035-.017.022a.106.106,0,0,0,.017-.022Z" fill="#fff"/>
        </g>
        <g id="Group_52964" data-name="Group 52964" transform="translate(6.663 17.81)">
          <path id="Path_275471" data-name="Path 275471" d="M0,0" fill="none" stroke="#060707" stroke-width="0.622"/>
        </g>
        <g id="Group_52965" data-name="Group 52965" transform="translate(4.435 6.59)">
          <path id="Path_275472" data-name="Path 275472" d="M.05.7A.455.455,0,0,1,.331.054,1.675,1.675,0,0,1,1.9.465c.156.314.155.67-.288.721S.9.772.05.7Z" transform="translate(0.067 0.072)" fill="#030504"/>
          <path id="Path_275473" data-name="Path 275473" d="M1.617,1.334a1.2,1.2,0,0,1-.551-.185A2.323,2.323,0,0,0,.11.842l-.041,0L.052.8A.618.618,0,0,1,.036.345.531.531,0,0,1,.374.058,1.714,1.714,0,0,1,2.035.506a.658.658,0,0,1,.051.6.476.476,0,0,1-.394.226A.683.683,0,0,1,1.617,1.334ZM.168.7a2.494,2.494,0,0,1,.961.318.948.948,0,0,0,.543.165.343.343,0,0,0,.284-.152A.531.531,0,0,0,1.906.569,1.632,1.632,0,0,0,.421.193.4.4,0,0,0,.168.4a.45.45,0,0,0,0,.3Z" transform="translate(0)" fill="#fff"/>
        </g>
        <g id="Group_52966" data-name="Group 52966" transform="translate(5.897 5.404)">
          <path id="Path_275474" data-name="Path 275474" d="M.037.514A.336.336,0,0,1,.244.039a1.234,1.234,0,0,1,1.16.3c.116.231.116.494-.212.531S.663.568.037.514Z" transform="translate(0.05 0.055)" fill="#030504"/>
          <path id="Path_275475" data-name="Path 275475" d="M1.191.984a.882.882,0,0,1-.4-.137,1.711,1.711,0,0,0-.7-.226l-.033,0L.038.591A.455.455,0,0,1,.027.254.391.391,0,0,1,.276.043,1.265,1.265,0,0,1,1.5.373a.484.484,0,0,1,.037.441.351.351,0,0,1-.291.166A.5.5,0,0,1,1.191.984ZM.124.519A1.839,1.839,0,0,1,.833.753a.691.691,0,0,0,.4.122.253.253,0,0,0,.21-.112A.391.391,0,0,0,1.405.42,1.2,1.2,0,0,0,.311.143.291.291,0,0,0,.124.3a.332.332,0,0,0,0,.224Z" transform="translate(0 0)" fill="#fff"/>
        </g>
        <g id="Group_52967" data-name="Group 52967" transform="translate(4.971 5.838)">
          <path id="Path_275476" data-name="Path 275476" d="M.05.686A.455.455,0,0,1,.331.041,2.547,2.547,0,0,1,2.287.583C2.443.9,2.442,1.254,2,1.3S.9.759.05.686Z" transform="translate(0.067 0.07)" fill="#030504"/>
          <path id="Path_275477" data-name="Path 275477" d="M2.012,1.448A1.969,1.969,0,0,1,1.27,1.2,3.44,3.44,0,0,0,.111.828l-.041,0L.051.786A.618.618,0,0,1,.036.331.531.531,0,0,1,.375.043,2.571,2.571,0,0,1,2.419.621a.658.658,0,0,1,.051.6.476.476,0,0,1-.395.226A.55.55,0,0,1,2.012,1.448ZM.168.689a3.654,3.654,0,0,1,1.164.383,1.627,1.627,0,0,0,.728.23.343.343,0,0,0,.284-.152A.531.531,0,0,0,2.294.684,2.558,2.558,0,0,0,.421.179.4.4,0,0,0,.168.384a.45.45,0,0,0,0,.3Z" transform="translate(0 0)" fill="#fff"/>
        </g>
        <g id="Group_52968" data-name="Group 52968" transform="translate(4.391 7.413)">
          <path id="Path_275478" data-name="Path 275478" d="M1.276.8A.331.331,0,0,0,1.44.474,1.374,1.374,0,0,0,.3,0C-.157.1.043.7.043.7a.968.968,0,0,0,.72.51C.814,1.214.566.794.618.8a1.591,1.591,0,0,0,.657,0Z" transform="translate(0.031 0.034)" fill="#030504"/>
          <path id="Path_275479" data-name="Path 275479" d="M.816,1.275H.79A.993.993,0,0,1,.044.742.773.773,0,0,1,.058.191.39.39,0,0,1,.329,0a1.462,1.462,0,0,1,1.035.33c.094.073.142.131.143.173a.36.36,0,0,1-.185.357h0a1.446,1.446,0,0,1-.635.01c.015.04.046.106.069.152.079.166.094.2.074.232ZM.475.056A.607.607,0,0,0,.343.07.325.325,0,0,0,.117.225a.717.717,0,0,0-.01.492.947.947,0,0,0,.65.486C.741,1.164.712,1.1.691,1.058.611.889.594.847.615.819L.629.8H.655a1.508,1.508,0,0,0,.64,0h0A.3.3,0,0,0,1.438.505c0-.015-.047-.074-.172-.162A1.524,1.524,0,0,0,.475.056Z" transform="translate(0 0)" fill="#fff"/>
        </g>
        <g id="Group_52969" data-name="Group 52969" transform="translate(2.473 8.617)">
          <path id="Path_275480" data-name="Path 275480" d="M10.679,8.018S9.9,5.14,8.312,4.346l-.585-.013S6.436,3.312,5.936,2.786,3.991.7,3.565.4A3.9,3.9,0,0,0,1.232.047.307.307,0,0,0,1.113.6a.989.989,0,0,0,.582.17s.767.138,1.032.183l.459.607A2.829,2.829,0,0,0,.7,2.277s-.767.218-.692.654S.7,3.305.7,3.305A5.054,5.054,0,0,0,1.884,2.92a2.8,2.8,0,0,1,.986.036,2.247,2.247,0,0,1,.8.419,3.5,3.5,0,0,0-1-.033A4.811,4.811,0,0,0,1.288,3.8c-.4.184-.245.692,0,.708a5.979,5.979,0,0,0,.87-.2,1.915,1.915,0,0,1,1.536.074c.193.1.676,1.218,1.352,1.685a2.452,2.452,0,0,0,1.73.274,3.016,3.016,0,0,1,1.088.347C8.68,7.054,10.679,8.018,10.679,8.018Z" transform="translate(0.063 0.062)" fill="#030504"/>
          <path id="Path_275481" data-name="Path 275481" d="M10.838,8.2l-.123-.06c-.02-.01-2.007-.967-2.815-1.325A3.086,3.086,0,0,0,6.837,6.47a2.475,2.475,0,0,1-1.771-.285A4.364,4.364,0,0,1,4.031,4.927a1.954,1.954,0,0,0-.3-.422A1.613,1.613,0,0,0,2.45,4.388c-.076.019-.148.038-.217.051a2.8,2.8,0,0,0-.433.11,1.242,1.242,0,0,1-.451.087.36.36,0,0,1-.3-.32.451.451,0,0,1,.275-.506,4.851,4.851,0,0,1,1.4-.467,3.574,3.574,0,0,1,.764,0,2.069,2.069,0,0,0-.575-.262,2.758,2.758,0,0,0-.961-.035,4.958,4.958,0,0,1-1.19.386C.533,3.453.073,3.393.006,3c-.077-.455.614-.688.723-.72A3.006,3.006,0,0,1,3.1,1.534l-.346-.458L1.746.9a1.035,1.035,0,0,1-.607-.18A.361.361,0,0,1,.987.333a.36.36,0,0,1,.3-.286A3.968,3.968,0,0,1,3.662.415,27.891,27.891,0,0,1,5.807,2.554l.237.253c.46.485,1.616,1.408,1.768,1.528l.591.019c1.59.8,2.367,3.592,2.4,3.712Zm-4-1.85A3.225,3.225,0,0,1,7.951,6.7c.691.3,2.237,1.047,2.691,1.265C10.465,7.39,9.7,5.153,8.36,4.471l-.593-.016L7.75,4.442c-.013-.01-1.3-1.03-1.8-1.554l-.237-.253A28.139,28.139,0,0,0,3.592.518,3.815,3.815,0,0,0,1.3.171a.237.237,0,0,0-.2.187.239.239,0,0,0,.1.253A.931.931,0,0,0,1.756.77c.013,0,.779.139,1.044.184l.025,0,.587.782L3.23,1.689a2.794,2.794,0,0,0-2.429.7L.779,2.4c-.007,0-.711.207-.648.583s.618.323.624.322a5.126,5.126,0,0,0,1.167-.383,2.792,2.792,0,0,1,1.025.033,2.288,2.288,0,0,1,.825.433l.182.155L3.72,3.5a3.479,3.479,0,0,0-.979-.03,4.753,4.753,0,0,0-1.366.455.328.328,0,0,0-.2.37c.022.119.1.213.184.218a1.175,1.175,0,0,0,.4-.081,2.928,2.928,0,0,1,.451-.115c.064-.01.132-.027.205-.046a1.74,1.74,0,0,1,1.366.125c.083.041.179.189.354.467A4.275,4.275,0,0,0,5.144,6.083a2.4,2.4,0,0,0,1.68.264Z" transform="translate(0 0)" fill="#fff"/>
        </g>
        <g id="Group_52970" data-name="Group 52970" transform="translate(3.222 10.623)">
          <path id="Path_275482" data-name="Path 275482" d="M3.833.783A3.486,3.486,0,0,0,1.7.132C.658.284.029.4.023.4L0,.269C.006.267.636.155,1.681,0A3.564,3.564,0,0,1,3.909.678Z" fill="#fff"/>
        </g>
        <g id="Group_52971" data-name="Group 52971" transform="translate(5.08 10.148)">
          <path id="Path_275483" data-name="Path 275483" d="M2.1.79A3.861,3.861,0,0,0,1,.256,3.125,3.125,0,0,0,.012.132L0,0A3.224,3.224,0,0,1,1.032.13,3.92,3.92,0,0,1,2.176.685Z" transform="translate(0 0)" fill="#fff"/>
        </g>
      </g>
    </g>
    <g id="Group_53000" data-name="Group 53000" transform="translate(0 42.094)">
      <g id="Group_52974" data-name="Group 52974" transform="translate(4.916 0.504)">
        <rect id="Rectangle_13937" data-name="Rectangle 13937" width="1.004" height="3.122" fill="#040505"/>
      </g>
      <g id="Group_52975" data-name="Group 52975" transform="translate(26.234 0.642)">
        <rect id="Rectangle_13938" data-name="Rectangle 13938" width="1.004" height="3.718" transform="translate(0 0.71) rotate(-45)" fill="#040505"/>
      </g>
      <rect id="Rectangle_13939" data-name="Rectangle 13939" width="48.285" height="7.091" rx="3" transform="translate(0 15.572)" fill="#040505"/>
      <g id="Group_52976" data-name="Group 52976" transform="translate(17.578 2.312)">
        <rect id="Rectangle_13940" data-name="Rectangle 13940" width="0.624" height="12.447" fill="#040505"/>
      </g>
      <g id="Group_52977" data-name="Group 52977" transform="translate(16.033 2.312)">
        <rect id="Rectangle_13941" data-name="Rectangle 13941" width="0.624" height="12.447" fill="#040505"/>
      </g>
      <g id="Group_52978" data-name="Group 52978" transform="translate(1.405 3.196)">
        <path id="Path_275484" data-name="Path 275484" d="M285.272,657.276h-1V646.718h-4.105a1.913,1.913,0,0,0-1.911,1.911v8.648h-1v-8.65a2.919,2.919,0,0,1,2.916-2.916h5.11Z" transform="translate(-277.247 -645.712)" fill="#040505"/>
      </g>
      <g id="Group_52979" data-name="Group 52979" transform="translate(24.72 3.196)">
        <path id="Path_275485" data-name="Path 275485" d="M549.091,657.276h-1V646.718h-4.314a1.7,1.7,0,0,0-1.7,1.7v8.857h-1v-8.858a2.71,2.71,0,0,1,2.707-2.707h5.318Z" transform="translate(-541.066 -645.712)" fill="#040505"/>
      </g>
      <g id="Group_52980" data-name="Group 52980" transform="translate(11.384)">
        <path id="Path_275486" data-name="Path 275486" d="M395.9,621.01a5.717,5.717,0,1,1,5.717-5.717A5.717,5.717,0,0,1,395.9,621.01Zm0-10.427a4.712,4.712,0,1,0,4.712,4.712A4.712,4.712,0,0,0,395.9,610.583Z" transform="translate(-390.179 -609.576)" fill="#040505"/>
      </g>
      <g id="Group_52981" data-name="Group 52981" transform="translate(39.091 4.106)">
        <rect id="Rectangle_13942" data-name="Rectangle 13942" width="0.624" height="9.892" fill="#040505"/>
      </g>
      <g id="Group_52982" data-name="Group 52982" transform="translate(40.594 4.125)">
        <rect id="Rectangle_13943" data-name="Rectangle 13943" width="0.624" height="9.892" fill="#040505"/>
      </g>
      <g id="Group_52983" data-name="Group 52983" transform="translate(45.848 6.272)">
        <rect id="Rectangle_13944" data-name="Rectangle 13944" width="1.992" height="1.004" fill="#040505"/>
      </g>
      <g id="Group_52984" data-name="Group 52984" transform="translate(33.893 2.296)">
        <path id="Path_275487" data-name="Path 275487" d="M651.071,648.009a6.24,6.24,0,1,1,6.242-6.241,6.24,6.24,0,0,1-6.242,6.241Zm0-11.476a5.236,5.236,0,1,0,5.236,5.236A5.236,5.236,0,0,0,651.071,636.533Z" transform="translate(-644.834 -635.529)" fill="#040505"/>
      </g>
      <g id="Group_52985" data-name="Group 52985" transform="translate(7.144 16.526)">
        <path id="Path_275488" data-name="Path 275488" d="M345.736,799.866l.828.1a2.02,2.02,0,0,1-.725,1.126,2.457,2.457,0,0,1-3-.238,2.5,2.5,0,0,1-.607-1.791,2.61,2.61,0,0,1,.614-1.851,2.078,2.078,0,0,1,1.593-.658,2.02,2.02,0,0,1,1.548.645,2.564,2.564,0,0,1,.6,1.815q0,.071,0,.214h-3.524a1.816,1.816,0,0,0,.441,1.193,1.311,1.311,0,0,0,.988.414,1.225,1.225,0,0,0,.752-.231A1.536,1.536,0,0,0,345.736,799.866Zm-2.631-1.295h2.638a1.6,1.6,0,0,0-.3-.895,1.227,1.227,0,0,0-.992-.463,1.272,1.272,0,0,0-.928.369,1.461,1.461,0,0,0-.413.987Z" transform="translate(-342.23 -796.554)" fill="#fff"/>
      </g>
      <g id="Group_52986" data-name="Group 52986" transform="translate(28.84 16.526)">
        <path id="Path_275489" data-name="Path 275489" d="M587.7,799.975l.792-.125a1.106,1.106,0,0,0,.371.73,1.294,1.294,0,0,0,.852.253,1.25,1.25,0,0,0,.819-.225.671.671,0,0,0,.267-.527.487.487,0,0,0-.236-.427,3.475,3.475,0,0,0-.819-.271,7.433,7.433,0,0,1-1.221-.385,1.163,1.163,0,0,1-.692-1.083,1.214,1.214,0,0,1,.145-.585,1.3,1.3,0,0,1,.394-.447,1.649,1.649,0,0,1,.51-.234,2.43,2.43,0,0,1,.692-.1,2.732,2.732,0,0,1,.977.16,1.326,1.326,0,0,1,.621.434,1.7,1.7,0,0,1,.276.732l-.783.107a.857.857,0,0,0-.309-.57,1.13,1.13,0,0,0-.723-.2,1.309,1.309,0,0,0-.788.183.531.531,0,0,0-.236.427.442.442,0,0,0,.1.28.705.705,0,0,0,.307.213q.12.044.708.2a9.889,9.889,0,0,1,1.185.371,1.2,1.2,0,0,1,.527.42,1.175,1.175,0,0,1,.191.685,1.346,1.346,0,0,1-.233.754,1.511,1.511,0,0,1-.674.547,2.455,2.455,0,0,1-1,.193,2.221,2.221,0,0,1-1.4-.382,1.78,1.78,0,0,1-.616-1.134Z" transform="translate(-587.7 -796.553)" fill="#fff"/>
      </g>
      <g id="Group_52987" data-name="Group 52987" transform="translate(0.69 16.526)">
        <path id="Path_275490" data-name="Path 275490" d="M269.155,799.975l.792-.125a1.107,1.107,0,0,0,.371.73,1.294,1.294,0,0,0,.852.253,1.251,1.251,0,0,0,.819-.225.671.671,0,0,0,.267-.527.487.487,0,0,0-.236-.427,3.481,3.481,0,0,0-.819-.271A7.434,7.434,0,0,1,269.98,799a1.164,1.164,0,0,1-.692-1.083,1.215,1.215,0,0,1,.145-.585,1.3,1.3,0,0,1,.394-.447,1.65,1.65,0,0,1,.51-.234,2.43,2.43,0,0,1,.692-.1,2.732,2.732,0,0,1,.976.16,1.327,1.327,0,0,1,.621.434,1.7,1.7,0,0,1,.276.732l-.783.107a.857.857,0,0,0-.309-.57,1.131,1.131,0,0,0-.723-.2,1.31,1.31,0,0,0-.788.183.531.531,0,0,0-.236.427.441.441,0,0,0,.1.28.7.7,0,0,0,.307.214q.12.044.708.2a9.882,9.882,0,0,1,1.185.371,1.2,1.2,0,0,1,.527.42,1.174,1.174,0,0,1,.191.685,1.345,1.345,0,0,1-.233.754,1.512,1.512,0,0,1-.674.547,2.456,2.456,0,0,1-1,.193,2.22,2.22,0,0,1-1.4-.382,1.779,1.779,0,0,1-.616-1.134Z" transform="translate(-269.155 -796.553)" fill="#fff"/>
      </g>
      <g id="Group_52988" data-name="Group 52988" transform="translate(35.123 16.526)">
        <path id="Path_275491" data-name="Path 275491" d="M662.329,799.866l.828.1a2.019,2.019,0,0,1-.725,1.126,2.457,2.457,0,0,1-3-.238,2.5,2.5,0,0,1-.607-1.791,2.611,2.611,0,0,1,.614-1.851,2.078,2.078,0,0,1,1.593-.658,2.02,2.02,0,0,1,1.548.645,2.563,2.563,0,0,1,.6,1.815q0,.071,0,.214h-3.524a1.816,1.816,0,0,0,.441,1.193,1.311,1.311,0,0,0,.987.414,1.226,1.226,0,0,0,.752-.231,1.536,1.536,0,0,0,.494-.739Zm-2.631-1.295h2.639a1.6,1.6,0,0,0-.3-.895,1.227,1.227,0,0,0-.992-.463,1.272,1.272,0,0,0-.927.369,1.462,1.462,0,0,0-.414.987Z" transform="translate(-658.823 -796.554)" fill="#fff"/>
      </g>
      <path id="Path_275492" data-name="Path 275492" d="M436.539,795.546h.026l-.018,0C436.538,795.542,436.535,795.543,436.539,795.546Z" transform="translate(-421.055 -779.106)" fill="#6b0911"/>
      <g id="Group_52989" data-name="Group 52989" transform="translate(23.877 18.141)">
        <path id="Path_275493" data-name="Path 275493" d="M531.539,815.655V814.8l.742.428.743.429-.743.428-.742.429Z" transform="translate(-531.539 -814.8)" fill="#fff"/>
      </g>
      <g id="Group_52990" data-name="Group 52990" transform="translate(21.959 16.5)">
        <path id="Path_275494" data-name="Path 275494" d="M512.233,801.063a2.4,2.4,0,1,1,2.4-2.4A2.4,2.4,0,0,1,512.233,801.063Zm0-4.181a1.778,1.778,0,1,0,1.778,1.778,1.778,1.778,0,0,0-1.778-1.778Z" transform="translate(-509.831 -796.258)" fill="#fff"/>
      </g>
      <g id="Group_52991" data-name="Group 52991" transform="translate(26.248 16.486)">
        <rect id="Rectangle_13945" data-name="Rectangle 13945" width="0.668" height="4.832" fill="#fff"/>
      </g>
      <g id="Group_52995" data-name="Group 52995" transform="translate(13.586 16.628)">
        <g id="Group_52992" data-name="Group 52992" transform="translate(2.964 0.004)">
          <path id="Path_275495" data-name="Path 275495" d="M451.34,797.762l-.81,2.732-.271.911-.236-.9-.708-2.741H448.6l1.241,4.725h.8l1.477-4.725Z" transform="translate(-448.6 -797.761)" fill="#fff"/>
        </g>
        <g id="Group_52993" data-name="Group 52993" transform="translate(2.232)">
          <path id="Path_275496" data-name="Path 275496" d="M442.126,802.443h-.538l-1.242-4.73.537,0Z" transform="translate(-440.346 -797.713)" fill="#fff"/>
        </g>
        <g id="Group_52994" data-name="Group 52994" transform="translate(0 0.005)">
          <path id="Path_275497" data-name="Path 275497" d="M417.55,799.194l-.363,1.335q-.227.9-.245.974l-.28-1.014-.752-2.728h-.828l1.446,4.725h.836l.525-2Z" transform="translate(-415.082 -797.762)" fill="#fff"/>
        </g>
      </g>
      <g id="Group_52999" data-name="Group 52999" transform="translate(41.295 16.628)">
        <g id="Group_52996" data-name="Group 52996" transform="translate(2.961 0.004)">
          <path id="Path_275498" data-name="Path 275498" d="M764.876,797.762l-.81,2.732-.271.911-.236-.9-.708-2.741h-.718l1.241,4.725h.8l1.477-4.725Z" transform="translate(-762.133 -797.761)" fill="#fff"/>
        </g>
        <g id="Group_52997" data-name="Group 52997" transform="translate(2.232)">
          <path id="Path_275499" data-name="Path 275499" d="M755.664,802.443h-.536l-1.242-4.73.537,0Z" transform="translate(-753.886 -797.713)" fill="#fff"/>
        </g>
        <g id="Group_52998" data-name="Group 52998" transform="translate(0 0.005)">
          <path id="Path_275500" data-name="Path 275500" d="M731.089,799.194l-.363,1.335q-.227.9-.245.974l-.28-1.014-.752-2.728h-.829l1.446,4.725h.836l.525-2Z" transform="translate(-728.62 -797.762)" fill="#fff"/>
        </g>
      </g>
    </g>
  </g>
</svg>
